<mxfile host="app.diagrams.net" modified="2024-06-01T21:46:54.879Z" agent="Mozilla/5.0 (Windows NT 10.0; Win64; x64) AppleWebKit/537.36 (KHTML, like Gecko) Chrome/125.0.0.0 Safari/537.36" etag="XAJ_hhMWnFVYQPLwgUd9" version="24.4.13" type="github">
  <diagram name="Page-1" id="CchEZuPgcVALb4HGS6-0">
    <mxGraphModel dx="1434" dy="746" grid="1" gridSize="10" guides="1" tooltips="1" connect="1" arrows="1" fold="1" page="1" pageScale="1" pageWidth="850" pageHeight="1100" math="0" shadow="0">
      <root>
        <mxCell id="0" />
        <mxCell id="1" parent="0" />
        <mxCell id="V8r_Qk7BSJXEDq4IUL8d-3" value="" style="edgeStyle=orthogonalEdgeStyle;rounded=0;orthogonalLoop=1;jettySize=auto;html=1;" edge="1" parent="1" source="V8r_Qk7BSJXEDq4IUL8d-1" target="V8r_Qk7BSJXEDq4IUL8d-2">
          <mxGeometry relative="1" as="geometry" />
        </mxCell>
        <mxCell id="V8r_Qk7BSJXEDq4IUL8d-1" value="start" style="strokeWidth=2;html=1;shape=mxgraph.flowchart.start_1;whiteSpace=wrap;" vertex="1" parent="1">
          <mxGeometry x="375" y="60" width="100" height="60" as="geometry" />
        </mxCell>
        <mxCell id="V8r_Qk7BSJXEDq4IUL8d-2" value="Declarations&lt;div&gt;&amp;nbsp; num count = 0&lt;br&gt;&lt;/div&gt;" style="rounded=1;whiteSpace=wrap;html=1;absoluteArcSize=1;arcSize=14;strokeWidth=2;align=left;" vertex="1" parent="1">
          <mxGeometry x="375" y="150" width="100" height="70" as="geometry" />
        </mxCell>
        <mxCell id="V8r_Qk7BSJXEDq4IUL8d-6" value="" style="edgeStyle=orthogonalEdgeStyle;rounded=0;orthogonalLoop=1;jettySize=auto;html=1;" edge="1" parent="1" source="V8r_Qk7BSJXEDq4IUL8d-4" target="V8r_Qk7BSJXEDq4IUL8d-2">
          <mxGeometry relative="1" as="geometry" />
        </mxCell>
        <mxCell id="V8r_Qk7BSJXEDq4IUL8d-7" value="YES" style="edgeStyle=orthogonalEdgeStyle;rounded=0;orthogonalLoop=1;jettySize=auto;html=1;" edge="1" parent="1" source="V8r_Qk7BSJXEDq4IUL8d-4" target="V8r_Qk7BSJXEDq4IUL8d-5">
          <mxGeometry relative="1" as="geometry" />
        </mxCell>
        <mxCell id="V8r_Qk7BSJXEDq4IUL8d-4" value="count &amp;lt; 4" style="strokeWidth=2;html=1;shape=mxgraph.flowchart.decision;whiteSpace=wrap;" vertex="1" parent="1">
          <mxGeometry x="375" y="260" width="100" height="100" as="geometry" />
        </mxCell>
        <mxCell id="V8r_Qk7BSJXEDq4IUL8d-5" value="output &quot;Hello&quot;" style="shape=parallelogram;html=1;strokeWidth=2;perimeter=parallelogramPerimeter;whiteSpace=wrap;rounded=1;arcSize=12;size=0.23;" vertex="1" parent="1">
          <mxGeometry x="510" y="380" width="100" height="60" as="geometry" />
        </mxCell>
        <mxCell id="V8r_Qk7BSJXEDq4IUL8d-9" value="" style="edgeStyle=orthogonalEdgeStyle;rounded=0;orthogonalLoop=1;jettySize=auto;html=1;" edge="1" parent="1" source="V8r_Qk7BSJXEDq4IUL8d-8" target="V8r_Qk7BSJXEDq4IUL8d-5">
          <mxGeometry relative="1" as="geometry" />
        </mxCell>
        <mxCell id="V8r_Qk7BSJXEDq4IUL8d-15" style="edgeStyle=orthogonalEdgeStyle;rounded=0;orthogonalLoop=1;jettySize=auto;html=1;" edge="1" parent="1" source="V8r_Qk7BSJXEDq4IUL8d-8">
          <mxGeometry relative="1" as="geometry">
            <mxPoint x="490" y="185" as="targetPoint" />
            <Array as="points">
              <mxPoint x="560" y="570" />
              <mxPoint x="680" y="570" />
              <mxPoint x="680" y="185" />
            </Array>
          </mxGeometry>
        </mxCell>
        <mxCell id="V8r_Qk7BSJXEDq4IUL8d-8" value="count = count + 1" style="rounded=1;whiteSpace=wrap;html=1;absoluteArcSize=1;arcSize=14;strokeWidth=2;" vertex="1" parent="1">
          <mxGeometry x="510" y="470" width="100" height="60" as="geometry" />
        </mxCell>
        <mxCell id="V8r_Qk7BSJXEDq4IUL8d-10" style="edgeStyle=orthogonalEdgeStyle;rounded=0;orthogonalLoop=1;jettySize=auto;html=1;exitX=0.5;exitY=1;exitDx=0;exitDy=0;" edge="1" parent="1" source="V8r_Qk7BSJXEDq4IUL8d-8" target="V8r_Qk7BSJXEDq4IUL8d-8">
          <mxGeometry relative="1" as="geometry" />
        </mxCell>
        <mxCell id="V8r_Qk7BSJXEDq4IUL8d-16" value="stop" style="strokeWidth=2;html=1;shape=mxgraph.flowchart.terminator;whiteSpace=wrap;" vertex="1" parent="1">
          <mxGeometry x="375" y="570" width="100" height="60" as="geometry" />
        </mxCell>
        <mxCell id="V8r_Qk7BSJXEDq4IUL8d-17" style="edgeStyle=orthogonalEdgeStyle;rounded=0;orthogonalLoop=1;jettySize=auto;html=1;entryX=0.5;entryY=0;entryDx=0;entryDy=0;entryPerimeter=0;" edge="1" parent="1" source="V8r_Qk7BSJXEDq4IUL8d-4" target="V8r_Qk7BSJXEDq4IUL8d-16">
          <mxGeometry relative="1" as="geometry" />
        </mxCell>
      </root>
    </mxGraphModel>
  </diagram>
</mxfile>
